<svg width="24" height="24" viewBox="0 0 24 24" fill="none" xmlns="http://www.w3.org/2000/svg">
<path d="M4.5 1.50122L19.5 12.0012L4.5 22.5012L4.5 1.50122Z" fill="#6AEAE9"/>
<path d="M4.5 1.50122L19.5 12.0012H4.5V1.50122Z" fill="white"/>
<path fill-rule="evenodd" clip-rule="evenodd" d="M4.82257 1.0404L4.5 1.50122H4.5L4.82257 1.0404ZM4.82257 1.0404L19.8226 11.5404C19.9729 11.6457 20.0625 11.8177 20.0625 12.0012C20.0625 12.1848 19.9729 12.3568 19.8226 12.462L4.82257 22.962C4.65074 23.0823 4.42627 23.097 4.24023 23.0001C4.05419 22.9033 3.9375 22.711 3.9375 22.5012L3.9375 1.50122C3.9375 1.29148 4.0542 1.09916 4.24023 1.0023C4.42627 0.905436 4.65075 0.920125 4.82257 1.0404ZM5.0625 2.58159L5.0625 21.4209L18.5191 12.0012L5.0625 2.58159Z" fill="#562B7C"/>
</svg>
