<?xml version="1.0" encoding="UTF-8"?> <svg xmlns="http://www.w3.org/2000/svg" width="24" height="24" viewBox="0 0 24 24" fill="none"><path d="M13.5 19.501H1.5V1.50098H20.5V12.501L13.5 19.501Z" fill="white"></path><path d="M3 23.501L1.5 19.501H13.5L20.5 12.501L21.5 19.001L17 23.501H3Z" fill="#6AEAE9"></path><path fill-rule="evenodd" clip-rule="evenodd" d="M1 1.50098C1 1.22483 1.22386 1.00098 1.5 1.00098H20.5C20.7761 1.00098 21 1.22483 21 1.50098V12.501C21 12.6336 20.9473 12.7608 20.8536 12.8545L13.8536 19.8545C13.7598 19.9483 13.6326 20.001 13.5 20.001H1.5C1.22386 20.001 1 19.7771 1 19.501V1.50098ZM2 2.00098V19.001H13.2929L20 12.2939V2.00098H2Z" fill="#562B7C"></path><path fill-rule="evenodd" clip-rule="evenodd" d="M13 12.501C13 12.2248 13.2239 12.001 13.5 12.001H20.5C20.7761 12.001 21 12.2248 21 12.501C21 12.7771 20.7761 13.001 20.5 13.001H14V19.501C14 19.7771 13.7761 20.001 13.5 20.001C13.2239 20.001 13 19.7771 13 19.501V12.501Z" fill="#562B7C"></path><path fill-rule="evenodd" clip-rule="evenodd" d="M21.3536 15.6474C21.5488 15.8427 21.5488 16.1593 21.3536 16.3545L15.8536 21.8545C15.7598 21.9483 15.6326 22.001 15.5 22.001H1.5C1.22386 22.001 1 21.7771 1 21.501C1 21.2248 1.22386 21.001 1.5 21.001H15.2929L20.6464 15.6474C20.8417 15.4522 21.1583 15.4522 21.3536 15.6474Z" fill="#562B7C"></path><path fill-rule="evenodd" clip-rule="evenodd" d="M21.8536 18.6474C22.0488 18.8427 22.0488 19.1593 21.8536 19.3545L17.3536 23.8545C17.2598 23.9483 17.1326 24.001 17 24.001H2.5C2.22386 24.001 2 23.7771 2 23.501C2 23.2248 2.22386 23.001 2.5 23.001H16.7929L21.1464 18.6474C21.3417 18.4522 21.6583 18.4522 21.8536 18.6474Z" fill="#562B7C"></path></svg> 