<svg width="181" height="188" viewBox="0 0 181 188" fill="none" xmlns="http://www.w3.org/2000/svg">
<g clip-path="url(#clip0_2086_24947)">
<path d="M54.9699 53.788L85.1218 0.922141" stroke="#6AEAE9" stroke-miterlimit="10"/>
<path d="M38.0135 120.504L54.9697 53.788" stroke="#6AEAE9" stroke-miterlimit="10"/>
<path d="M38.0716 173.794L38.0145 120.504" stroke="#6AEAE9" stroke-miterlimit="10"/>
<path d="M38.0137 120.504L93.5529 153.451" stroke="#6AEAE9" stroke-miterlimit="10"/>
<path d="M-0.509766 74.4184L38.0139 120.504" stroke="#6AEAE9" stroke-miterlimit="10"/>
<path d="M-0.508672 74.4184L54.9712 53.788" stroke="#6AEAE9" stroke-miterlimit="10"/>
<path d="M54.971 53.788L38.6348 29.1872" stroke="#6AEAE9" stroke-miterlimit="10"/>
<path d="M90.6433 100.798L54.9707 53.788" stroke="#6AEAE9" stroke-miterlimit="10"/>
<path d="M38.0135 120.504L90.6423 100.798" stroke="#6AEAE9" stroke-miterlimit="10"/>
<path d="M6.73093 129.365L38.0147 120.504" stroke="#6AEAE9" stroke-miterlimit="10"/>
<path d="M95.4156 187.148L90.6426 100.798" stroke="#6AEAE9" stroke-miterlimit="10"/>
<path d="M69.1239 10.65L40.7504 21.144L28.8427 40.5022" stroke="#6AEAE9" stroke-miterlimit="10"/>
<path d="M93.5533 153.451L38.0712 173.794" stroke="#6AEAE9" stroke-miterlimit="10"/>
<path d="M120.932 50.142L85.123 0.922138" stroke="#6AEAE9" stroke-miterlimit="10"/>
<path d="M145.138 114.583L120.932 50.142" stroke="#6AEAE9" stroke-miterlimit="10"/>
<path d="M150.953 167.555L145.137 114.583" stroke="#6AEAE9" stroke-miterlimit="10"/>
<path d="M145.136 114.583L93.5532 153.451" stroke="#6AEAE9" stroke-miterlimit="10"/>
<path d="M178.347 64.5321L145.137 114.583" stroke="#6AEAE9" stroke-miterlimit="10"/>
<path d="M120.93 50.142L87.8757 50.7507L54.9695 53.788" stroke="#6AEAE9" stroke-miterlimit="10"/>
<path d="M178.347 64.5321L120.932 50.142" stroke="#6AEAE9" stroke-miterlimit="10"/>
<path d="M120.931 50.142L134.456 23.8906" stroke="#6AEAE9" stroke-miterlimit="10"/>
<path d="M90.6426 100.798L120.93 50.142" stroke="#6AEAE9" stroke-miterlimit="10"/>
<path d="M145.136 114.583L90.6426 100.798" stroke="#6AEAE9" stroke-miterlimit="10"/>
<path d="M177.207 119.942L145.137 114.583" stroke="#6AEAE9" stroke-miterlimit="10"/>
<path d="M95.4156 187.148L90.6426 100.798" stroke="#6AEAE9" stroke-miterlimit="10"/>
<path d="M102.109 8.82663L131.467 16.1295L145.435 34.0574" stroke="#6AEAE9" stroke-miterlimit="10"/>
<path d="M93.5527 153.451L150.953 167.555" stroke="#6AEAE9" stroke-miterlimit="10"/>
<path d="M85.1223 0.922139L134.456 23.8906L178.346 64.5321L177.207 119.942L150.953 167.555L95.4161 187.148L38.0714 173.794L6.73044 129.365L-0.509495 74.4184L38.6341 29.1872L85.1223 0.922139Z" stroke="#6AEAE9" stroke-miterlimit="10"/>
<path d="M57.2441 51.9003L90.2678 0.779118" stroke="#562B7C" stroke-width="2" stroke-miterlimit="10"/>
<path d="M36.6328 117.579L57.2453 51.9003" stroke="#562B7C" stroke-width="2" stroke-miterlimit="10"/>
<path d="M33.748 170.791L36.6322 117.579" stroke="#562B7C" stroke-width="2" stroke-miterlimit="10"/>
<path d="M36.6328 117.579L90.269 153.541" stroke="#562B7C" stroke-width="2" stroke-miterlimit="10"/>
<path d="M0.710938 69.4373L36.6324 117.579" stroke="#562B7C" stroke-width="2" stroke-miterlimit="10"/>
<path d="M0.710938 69.4373L57.2449 51.9003" stroke="#562B7C" stroke-width="2" stroke-miterlimit="10"/>
<path d="M57.2446 51.9002L42.291 26.4354" stroke="#562B7C" stroke-width="2" stroke-miterlimit="10"/>
<path d="M90.2678 100.807L57.2441 51.9003" stroke="#562B7C" stroke-width="2" stroke-miterlimit="10"/>
<path d="M36.6328 117.579L90.269 100.807" stroke="#562B7C" stroke-width="2" stroke-miterlimit="10"/>
<path d="M4.9082 124.7L36.6334 117.579" stroke="#562B7C" stroke-width="2" stroke-miterlimit="10"/>
<path d="M90.2695 187.289V100.807" stroke="#562B7C" stroke-width="2" stroke-miterlimit="10"/>
<path d="M73.7561 9.60913L44.8467 18.5212L31.8887 37.1927" stroke="#562B7C" stroke-width="2" stroke-miterlimit="10"/>
<path d="M90.2683 153.541L33.748 170.791" stroke="#562B7C" stroke-width="2" stroke-miterlimit="10"/>
<path d="M123.307 51.9003L90.2695 0.779118" stroke="#562B7C" stroke-width="2" stroke-miterlimit="10"/>
<path d="M143.919 117.579L123.307 51.9003" stroke="#562B7C" stroke-width="2" stroke-miterlimit="10"/>
<path d="M146.802 170.791L143.918 117.579" stroke="#562B7C" stroke-width="2" stroke-miterlimit="10"/>
<path d="M143.919 117.579L90.2695 153.541" stroke="#562B7C" stroke-width="2" stroke-miterlimit="10"/>
<path d="M179.839 69.4373L143.918 117.579" stroke="#562B7C" stroke-width="2" stroke-miterlimit="10"/>
<path d="M123.305 51.9002L90.2678 50.6837L57.2441 51.9002" stroke="#562B7C" stroke-width="2" stroke-miterlimit="10"/>
<path d="M179.841 69.4373L123.307 51.9003" stroke="#562B7C" stroke-width="2" stroke-miterlimit="10"/>
<path d="M123.307 51.9002L138.26 26.4354" stroke="#562B7C" stroke-width="2" stroke-miterlimit="10"/>
<path d="M90.2695 100.807L123.307 51.9003" stroke="#562B7C" stroke-width="2" stroke-miterlimit="10"/>
<path d="M143.919 117.579L90.2695 100.807" stroke="#562B7C" stroke-width="2" stroke-miterlimit="10"/>
<path d="M175.643 124.7L143.918 117.579" stroke="#562B7C" stroke-width="2" stroke-miterlimit="10"/>
<path d="M90.2695 187.289V100.807" stroke="#562B7C" stroke-width="2" stroke-miterlimit="10"/>
<path d="M106.795 9.60913L135.704 18.5212L148.662 37.1927" stroke="#562B7C" stroke-width="2" stroke-miterlimit="10"/>
<path d="M90.2695 153.541L146.803 170.791" stroke="#562B7C" stroke-width="2" stroke-miterlimit="10"/>
<path d="M90.2686 0.779118L138.26 26.4354L179.84 69.4373L175.644 124.7L146.803 170.791L90.2686 187.289L33.7483 170.791L4.90724 124.7L0.710938 69.4373L42.2913 26.4354L90.2686 0.779118Z" stroke="#562B7C" stroke-width="2" stroke-miterlimit="10"/>
</g>
<defs>
<clipPath id="clip0_2086_24947">
<rect width="180.551" height="188" fill="white"/>
</clipPath>
</defs>
</svg>
