<?xml version="1.0" encoding="UTF-8"?> <svg xmlns="http://www.w3.org/2000/svg" width="250" height="49" viewBox="0 0 250 49" fill="none"><g clip-path="url(#clip0_2148_18231)"><path d="M38.1603 9.94789L34.8233 5.14051L27.4813 2.87781L23.0365 0.500977L18.5917 2.87781L11.2497 5.14051L7.91607 9.94454L0 18.1292L1.08435 32.4003L8.50357 44.2576L23.0365 48.4976L37.5695 44.2576L44.9887 32.4003L46.073 18.1292L38.1569 9.94454L38.1603 9.94789ZM35.0214 9.59875L41.5778 16.3801L32.6614 13.6139L35.018 9.59875H35.0214ZM24.6278 25.6525L30.8149 16.4943L34.6756 28.7914L24.6278 25.6491V25.6525ZM33.9068 30.6613L24.0436 37.2748V27.5795L33.9068 30.6613ZM33.4234 8.33984L31.1104 12.2811L25.9975 4.36837L33.4234 8.33984ZM29.2572 13.1204L23.0399 12.8921L16.8225 13.1204L23.0399 3.49552L29.2572 13.1204ZM20.0789 4.36837L14.966 12.2811L12.653 8.33984L20.0789 4.36837ZM15.2581 16.4943L21.4452 25.6525L11.4008 28.7947L15.2614 16.4976L15.2581 16.4943ZM11.055 9.59875L13.4117 13.6139L4.49517 16.3801L11.0516 9.59875H11.055ZM2.30634 21.8858L8.12757 29.6844L2.98783 30.8392L2.30634 21.8858ZM8.31893 40.1686L3.67604 32.7494L8.78221 31.6013L8.31893 40.1653V40.1686ZM2.69912 19.0457L13.3882 15.7288L9.49056 28.1468L2.69912 19.0457ZM10.773 32.1518L20.7167 38.8191L10.2392 42.015L10.773 32.1518ZM22.0294 46.1074L12.6731 43.378L22.0294 40.5245V46.1107V46.1074ZM22.0294 37.2748L12.1662 30.6613L22.0294 27.5795V37.2748ZM16.7755 15.138L23.0399 14.9097L29.3042 15.138L23.0399 24.4103L16.7755 15.138ZM24.0436 46.1074V40.5211L33.3999 43.3747L24.0436 46.104V46.1074ZM25.3596 38.8191L35.3034 32.1518L35.8372 42.015L25.3596 38.8191ZM32.6882 15.7288L43.3773 19.0457L36.5858 28.1468L32.6882 15.7288ZM37.7541 40.1686L37.2908 31.6046L42.397 32.7528L37.7541 40.172V40.1686ZM43.0885 30.8426L37.9488 29.6877L43.77 21.8891L43.0885 30.8426Z" fill="url(#paint0_linear_2148_18231)"></path></g><path d="M69.5852 26.929C69.5852 27.337 69.5612 27.769 69.4892 28.177H60.5612C61.0412 29.641 62.3852 30.313 63.9932 30.313C65.6012 30.313 66.8252 29.977 68.3612 29.161V32.401C67.2572 32.977 65.6252 33.361 63.7052 33.361C59.6012 33.361 56.7452 30.529 56.7452 26.905C56.7452 23.257 59.3612 20.425 63.3212 20.425C67.2092 20.425 69.5852 23.425 69.5852 26.929ZM63.3212 23.281C62.0252 23.281 60.9692 24.025 60.5612 25.465H66.0092C65.7452 24.193 64.7612 23.281 63.3212 23.281ZM75.1752 33.001H71.3352V20.785H75.1752V22.201C75.7272 21.265 76.8072 20.425 78.4632 20.425C81.0792 20.425 83.1672 22.441 83.1672 25.249V33.001H79.3032V25.969C79.3032 24.793 78.4152 23.881 77.2632 23.881C76.0632 23.881 75.1752 24.793 75.1752 25.993V33.001ZM94.4356 22.201V20.785H98.2756V31.513C98.2756 35.497 95.2036 38.401 91.0036 38.401C89.1556 38.401 87.4036 37.897 86.3236 37.057V33.097C87.2116 34.153 88.7716 35.041 90.6196 35.041C92.8036 35.041 94.4356 33.577 94.4356 31.489V30.841C93.6916 31.849 92.3476 32.641 90.5956 32.641C87.4036 32.641 84.8356 30.145 84.8356 26.545C84.8356 22.945 87.4036 20.425 90.5956 20.425C92.3236 20.425 93.7156 21.241 94.4356 22.201ZM91.6036 29.545C93.2596 29.545 94.5796 28.201 94.5796 26.545C94.5796 24.865 93.2596 23.521 91.6036 23.521C89.9236 23.521 88.5796 24.865 88.5796 26.545C88.5796 28.201 89.9236 29.545 91.6036 29.545ZM102.916 18.985C101.668 18.985 100.684 18.001 100.684 16.801C100.684 15.577 101.668 14.617 102.916 14.617C104.164 14.617 105.148 15.577 105.148 16.801C105.148 18.001 104.164 18.985 102.916 18.985ZM104.836 33.001H100.996V20.785H104.836V33.001ZM111.346 33.001H107.506V20.785H111.346V22.201C111.898 21.265 112.978 20.425 114.634 20.425C117.25 20.425 119.338 22.441 119.338 25.249V33.001H115.474V25.969C115.474 24.793 114.586 23.881 113.434 23.881C112.234 23.881 111.346 24.793 111.346 25.993V33.001ZM133.846 26.929C133.846 27.337 133.822 27.769 133.75 28.177H124.822C125.302 29.641 126.646 30.313 128.254 30.313C129.862 30.313 131.086 29.977 132.622 29.161V32.401C131.518 32.977 129.886 33.361 127.966 33.361C123.862 33.361 121.006 30.529 121.006 26.905C121.006 23.257 123.622 20.425 127.582 20.425C131.47 20.425 133.846 23.425 133.846 26.929ZM127.582 23.281C126.286 23.281 125.23 24.025 124.822 25.465H130.27C130.006 24.193 129.022 23.281 127.582 23.281ZM147.762 26.929C147.762 27.337 147.738 27.769 147.666 28.177H138.738C139.218 29.641 140.562 30.313 142.17 30.313C143.778 30.313 145.002 29.977 146.538 29.161V32.401C145.434 32.977 143.802 33.361 141.882 33.361C137.778 33.361 134.922 30.529 134.922 26.905C134.922 23.257 137.538 20.425 141.498 20.425C145.386 20.425 147.762 23.425 147.762 26.929ZM141.498 23.281C140.202 23.281 139.146 24.025 138.738 25.465H144.186C143.922 24.193 142.938 23.281 141.498 23.281ZM157.792 20.761V24.721C157.432 24.457 156.832 24.169 156.112 24.169C154.576 24.169 153.352 25.417 153.352 26.953V33.001H149.512V20.785H153.352V22.441C153.808 21.313 155.032 20.449 156.544 20.449C157.048 20.449 157.48 20.593 157.792 20.761ZM161.365 18.985C160.117 18.985 159.133 18.001 159.133 16.801C159.133 15.577 160.117 14.617 161.365 14.617C162.613 14.617 163.597 15.577 163.597 16.801C163.597 18.001 162.613 18.985 161.365 18.985ZM163.285 33.001H159.445V20.785H163.285V33.001ZM169.794 33.001H165.954V20.785H169.794V22.201C170.346 21.265 171.426 20.425 173.082 20.425C175.698 20.425 177.786 22.441 177.786 25.249V33.001H173.922V25.969C173.922 24.793 173.034 23.881 171.882 23.881C170.682 23.881 169.794 24.793 169.794 25.993V33.001ZM189.055 22.201V20.785H192.895V31.513C192.895 35.497 189.823 38.401 185.623 38.401C183.775 38.401 182.023 37.897 180.943 37.057V33.097C181.831 34.153 183.391 35.041 185.239 35.041C187.423 35.041 189.055 33.577 189.055 31.489V30.841C188.311 31.849 186.967 32.641 185.215 32.641C182.023 32.641 179.455 30.145 179.455 26.545C179.455 22.945 182.023 20.425 185.215 20.425C186.943 20.425 188.335 21.241 189.055 22.201ZM186.223 29.545C187.879 29.545 189.199 28.201 189.199 26.545C189.199 24.865 187.879 23.521 186.223 23.521C184.543 23.521 183.199 24.865 183.199 26.545C183.199 28.201 184.543 29.545 186.223 29.545ZM197.535 33.361C196.215 33.361 195.183 32.329 195.183 31.009C195.183 29.665 196.215 28.633 197.535 28.633C198.855 28.633 199.887 29.665 199.887 31.009C199.887 32.329 198.855 33.361 197.535 33.361ZM211.126 21.097V24.937C210.382 24.241 209.302 23.881 208.318 23.881C206.542 23.881 205.198 25.177 205.198 26.881C205.198 28.609 206.542 29.905 208.318 29.905C209.302 29.905 210.382 29.545 211.126 28.849V32.689C210.262 33.145 209.278 33.361 208.174 33.361C203.974 33.361 201.334 30.529 201.334 26.881C201.334 23.257 203.974 20.425 208.174 20.425C209.278 20.425 210.262 20.641 211.126 21.097ZM219.323 33.361C215.555 33.361 212.555 30.505 212.555 26.881C212.555 23.281 215.555 20.425 219.323 20.425C223.115 20.425 226.091 23.281 226.091 26.881C226.091 30.505 223.115 33.361 219.323 33.361ZM219.323 29.905C221.003 29.905 222.347 28.561 222.347 26.881C222.347 25.225 221.003 23.881 219.323 23.881C217.643 23.881 216.299 25.225 216.299 26.881C216.299 28.561 217.643 29.905 219.323 29.905ZM242.725 20.449C245.245 20.449 247.189 22.417 247.189 24.961V33.001H243.349V25.849C243.349 24.745 242.509 23.905 241.429 23.905C240.325 23.905 239.509 24.721 239.509 25.849V33.001H235.645V25.849C235.645 24.745 234.829 23.905 233.749 23.905C232.645 23.905 231.805 24.721 231.805 25.849V33.001H227.965V20.785H231.805V22.201C232.381 21.265 233.629 20.449 235.117 20.449C236.725 20.449 238.093 21.265 238.861 22.513C239.629 21.313 241.045 20.449 242.725 20.449Z" fill="white"></path><defs><linearGradient id="paint0_linear_2148_18231" x1="4.29088e-07" y1="0.999965" x2="47.9565" y2="47.0345" gradientUnits="userSpaceOnUse"><stop stop-color="#6AEAE9"></stop><stop offset="0.865" stop-color="#562B7C"></stop></linearGradient><clipPath id="clip0_2148_18231"><rect width="46.073" height="48" fill="white" transform="translate(0 0.500977)"></rect></clipPath></defs></svg> 