<?xml version="1.0" encoding="UTF-8"?> <svg xmlns="http://www.w3.org/2000/svg" width="250" height="48" viewBox="0 0 250 48" fill="none"><g clip-path="url(#clip0_2148_17877)"><path d="M38.1603 9.44692L34.8233 4.63953L27.4813 2.37684L23.0365 0L18.5917 2.37684L11.2497 4.63953L7.91607 9.44356L0 17.6282L1.08435 31.8993L8.50357 43.7566L23.0365 47.9966L37.5695 43.7566L44.9887 31.8993L46.073 17.6282L38.1569 9.44356L38.1603 9.44692ZM35.0214 9.09778L41.5778 15.8791L32.6614 13.1129L35.018 9.09778H35.0214ZM24.6278 25.1515L30.8149 15.9933L34.6756 28.2904L24.6278 25.1481V25.1515ZM33.9068 30.1603L24.0436 36.7738V27.0785L33.9068 30.1603ZM33.4234 7.83886L31.1104 11.7801L25.9975 3.86739L33.4234 7.83886ZM29.2572 12.6194L23.0399 12.3911L16.8225 12.6194L23.0399 2.99454L29.2572 12.6194ZM20.0789 3.86739L14.966 11.7801L12.653 7.83886L20.0789 3.86739ZM15.2581 15.9933L21.4452 25.1515L11.4008 28.2937L15.2614 15.9966L15.2581 15.9933ZM11.055 9.09778L13.4117 13.1129L4.49517 15.8791L11.0516 9.09778H11.055ZM2.30634 21.3848L8.12757 29.1834L2.98783 30.3382L2.30634 21.3848ZM8.31893 39.6676L3.67604 32.2484L8.78221 31.1003L8.31893 39.6643V39.6676ZM2.69912 18.5447L13.3882 15.2279L9.49056 27.6458L2.69912 18.5447ZM10.773 31.6509L20.7167 38.3181L10.2392 41.5141L10.773 31.6509ZM22.0294 45.6064L12.6731 42.877L22.0294 40.0235V45.6097V45.6064ZM22.0294 36.7738L12.1662 30.1603L22.0294 27.0785V36.7738ZM16.7755 14.637L23.0399 14.4087L29.3042 14.637L23.0399 23.9094L16.7755 14.637ZM24.0436 45.6064V40.0201L33.3999 42.8737L24.0436 45.603V45.6064ZM25.3596 38.3181L35.3034 31.6509L35.8372 41.5141L25.3596 38.3181ZM32.6882 15.2279L43.3773 18.5447L36.5858 27.6458L32.6882 15.2279ZM37.7541 39.6676L37.2908 31.1037L42.397 32.2518L37.7541 39.671V39.6676ZM43.0885 30.3416L37.9488 29.1867L43.77 21.3882L43.0885 30.3416Z" fill="#562B7C"></path><path opacity="0.5" d="M38.1603 9.44692L34.8233 4.63953L27.4813 2.37684L23.0365 0L18.5917 2.37684L11.2497 4.63953L7.91607 9.44356L0 17.6282L1.08435 31.8993L8.50357 43.7566L23.0365 47.9966L37.5695 43.7566L44.9887 31.8993L46.073 17.6282L38.1569 9.44356L38.1603 9.44692ZM35.0214 9.09778L41.5778 15.8791L32.6614 13.1129L35.018 9.09778H35.0214ZM24.6278 25.1515L30.8149 15.9933L34.6756 28.2904L24.6278 25.1481V25.1515ZM33.9068 30.1603L24.0436 36.7738V27.0785L33.9068 30.1603ZM33.4234 7.83886L31.1104 11.7801L25.9975 3.86739L33.4234 7.83886ZM29.2572 12.6194L23.0399 12.3911L16.8225 12.6194L23.0399 2.99454L29.2572 12.6194ZM20.0789 3.86739L14.966 11.7801L12.653 7.83886L20.0789 3.86739ZM15.2581 15.9933L21.4452 25.1515L11.4008 28.2937L15.2614 15.9966L15.2581 15.9933ZM11.055 9.09778L13.4117 13.1129L4.49517 15.8791L11.0516 9.09778H11.055ZM2.30634 21.3848L8.12757 29.1834L2.98783 30.3382L2.30634 21.3848ZM8.31893 39.6676L3.67604 32.2484L8.78221 31.1003L8.31893 39.6643V39.6676ZM2.69912 18.5447L13.3882 15.2279L9.49056 27.6458L2.69912 18.5447ZM10.773 31.6509L20.7167 38.3181L10.2392 41.5141L10.773 31.6509ZM22.0294 45.6064L12.6731 42.877L22.0294 40.0235V45.6097V45.6064ZM22.0294 36.7738L12.1662 30.1603L22.0294 27.0785V36.7738ZM16.7755 14.637L23.0399 14.4087L29.3042 14.637L23.0399 23.9094L16.7755 14.637ZM24.0436 45.6064V40.0201L33.3999 42.8737L24.0436 45.603V45.6064ZM25.3596 38.3181L35.3034 31.6509L35.8372 41.5141L25.3596 38.3181ZM32.6882 15.2279L43.3773 18.5447L36.5858 27.6458L32.6882 15.2279ZM37.7541 39.6676L37.2908 31.1037L42.397 32.2518L37.7541 39.671V39.6676ZM43.0885 30.3416L37.9488 29.1867L43.77 21.3882L43.0885 30.3416Z" fill="url(#paint0_linear_2148_17877)"></path></g><path d="M69.5852 26.428C69.5852 26.836 69.5612 27.268 69.4892 27.676H60.5612C61.0412 29.14 62.3852 29.812 63.9932 29.812C65.6012 29.812 66.8252 29.476 68.3612 28.66V31.9C67.2572 32.476 65.6252 32.86 63.7052 32.86C59.6012 32.86 56.7452 30.028 56.7452 26.404C56.7452 22.756 59.3612 19.924 63.3212 19.924C67.2092 19.924 69.5852 22.924 69.5852 26.428ZM63.3212 22.78C62.0252 22.78 60.9692 23.524 60.5612 24.964H66.0092C65.7452 23.692 64.7612 22.78 63.3212 22.78ZM75.1752 32.5H71.3352V20.284H75.1752V21.7C75.7272 20.764 76.8072 19.924 78.4632 19.924C81.0792 19.924 83.1672 21.94 83.1672 24.748V32.5H79.3032V25.468C79.3032 24.292 78.4152 23.38 77.2632 23.38C76.0632 23.38 75.1752 24.292 75.1752 25.492V32.5ZM94.4356 21.7V20.284H98.2756V31.012C98.2756 34.996 95.2036 37.9 91.0036 37.9C89.1556 37.9 87.4036 37.396 86.3236 36.556V32.596C87.2116 33.652 88.7716 34.54 90.6196 34.54C92.8036 34.54 94.4356 33.076 94.4356 30.988V30.34C93.6916 31.348 92.3476 32.14 90.5956 32.14C87.4036 32.14 84.8356 29.644 84.8356 26.044C84.8356 22.444 87.4036 19.924 90.5956 19.924C92.3236 19.924 93.7156 20.74 94.4356 21.7ZM91.6036 29.044C93.2596 29.044 94.5796 27.7 94.5796 26.044C94.5796 24.364 93.2596 23.02 91.6036 23.02C89.9236 23.02 88.5796 24.364 88.5796 26.044C88.5796 27.7 89.9236 29.044 91.6036 29.044ZM102.916 18.484C101.668 18.484 100.684 17.5 100.684 16.3C100.684 15.076 101.668 14.116 102.916 14.116C104.164 14.116 105.148 15.076 105.148 16.3C105.148 17.5 104.164 18.484 102.916 18.484ZM104.836 32.5H100.996V20.284H104.836V32.5ZM111.346 32.5H107.506V20.284H111.346V21.7C111.898 20.764 112.978 19.924 114.634 19.924C117.25 19.924 119.338 21.94 119.338 24.748V32.5H115.474V25.468C115.474 24.292 114.586 23.38 113.434 23.38C112.234 23.38 111.346 24.292 111.346 25.492V32.5ZM133.846 26.428C133.846 26.836 133.822 27.268 133.75 27.676H124.822C125.302 29.14 126.646 29.812 128.254 29.812C129.862 29.812 131.086 29.476 132.622 28.66V31.9C131.518 32.476 129.886 32.86 127.966 32.86C123.862 32.86 121.006 30.028 121.006 26.404C121.006 22.756 123.622 19.924 127.582 19.924C131.47 19.924 133.846 22.924 133.846 26.428ZM127.582 22.78C126.286 22.78 125.23 23.524 124.822 24.964H130.27C130.006 23.692 129.022 22.78 127.582 22.78ZM147.762 26.428C147.762 26.836 147.738 27.268 147.666 27.676H138.738C139.218 29.14 140.562 29.812 142.17 29.812C143.778 29.812 145.002 29.476 146.538 28.66V31.9C145.434 32.476 143.802 32.86 141.882 32.86C137.778 32.86 134.922 30.028 134.922 26.404C134.922 22.756 137.538 19.924 141.498 19.924C145.386 19.924 147.762 22.924 147.762 26.428ZM141.498 22.78C140.202 22.78 139.146 23.524 138.738 24.964H144.186C143.922 23.692 142.938 22.78 141.498 22.78ZM157.792 20.26V24.22C157.432 23.956 156.832 23.668 156.112 23.668C154.576 23.668 153.352 24.916 153.352 26.452V32.5H149.512V20.284H153.352V21.94C153.808 20.812 155.032 19.948 156.544 19.948C157.048 19.948 157.48 20.092 157.792 20.26ZM161.365 18.484C160.117 18.484 159.133 17.5 159.133 16.3C159.133 15.076 160.117 14.116 161.365 14.116C162.613 14.116 163.597 15.076 163.597 16.3C163.597 17.5 162.613 18.484 161.365 18.484ZM163.285 32.5H159.445V20.284H163.285V32.5ZM169.794 32.5H165.954V20.284H169.794V21.7C170.346 20.764 171.426 19.924 173.082 19.924C175.698 19.924 177.786 21.94 177.786 24.748V32.5H173.922V25.468C173.922 24.292 173.034 23.38 171.882 23.38C170.682 23.38 169.794 24.292 169.794 25.492V32.5ZM189.055 21.7V20.284H192.895V31.012C192.895 34.996 189.823 37.9 185.623 37.9C183.775 37.9 182.023 37.396 180.943 36.556V32.596C181.831 33.652 183.391 34.54 185.239 34.54C187.423 34.54 189.055 33.076 189.055 30.988V30.34C188.311 31.348 186.967 32.14 185.215 32.14C182.023 32.14 179.455 29.644 179.455 26.044C179.455 22.444 182.023 19.924 185.215 19.924C186.943 19.924 188.335 20.74 189.055 21.7ZM186.223 29.044C187.879 29.044 189.199 27.7 189.199 26.044C189.199 24.364 187.879 23.02 186.223 23.02C184.543 23.02 183.199 24.364 183.199 26.044C183.199 27.7 184.543 29.044 186.223 29.044ZM197.535 32.86C196.215 32.86 195.183 31.828 195.183 30.508C195.183 29.164 196.215 28.132 197.535 28.132C198.855 28.132 199.887 29.164 199.887 30.508C199.887 31.828 198.855 32.86 197.535 32.86ZM211.126 20.596V24.436C210.382 23.74 209.302 23.38 208.318 23.38C206.542 23.38 205.198 24.676 205.198 26.38C205.198 28.108 206.542 29.404 208.318 29.404C209.302 29.404 210.382 29.044 211.126 28.348V32.188C210.262 32.644 209.278 32.86 208.174 32.86C203.974 32.86 201.334 30.028 201.334 26.38C201.334 22.756 203.974 19.924 208.174 19.924C209.278 19.924 210.262 20.14 211.126 20.596ZM219.323 32.86C215.555 32.86 212.555 30.004 212.555 26.38C212.555 22.78 215.555 19.924 219.323 19.924C223.115 19.924 226.091 22.78 226.091 26.38C226.091 30.004 223.115 32.86 219.323 32.86ZM219.323 29.404C221.003 29.404 222.347 28.06 222.347 26.38C222.347 24.724 221.003 23.38 219.323 23.38C217.643 23.38 216.299 24.724 216.299 26.38C216.299 28.06 217.643 29.404 219.323 29.404ZM242.725 19.948C245.245 19.948 247.189 21.916 247.189 24.46V32.5H243.349V25.348C243.349 24.244 242.509 23.404 241.429 23.404C240.325 23.404 239.509 24.22 239.509 25.348V32.5H235.645V25.348C235.645 24.244 234.829 23.404 233.749 23.404C232.645 23.404 231.805 24.22 231.805 25.348V32.5H227.965V20.284H231.805V21.7C232.381 20.764 233.629 19.948 235.117 19.948C236.725 19.948 238.093 20.764 238.861 22.012C239.629 20.812 241.045 19.948 242.725 19.948Z" fill="#562B7C"></path><defs><linearGradient id="paint0_linear_2148_17877" x1="0" y1="0" x2="41.311" y2="51.7948" gradientUnits="userSpaceOnUse"><stop stop-color="#6AEAE9"></stop><stop offset="1" stop-color="#6AEAE9" stop-opacity="0"></stop></linearGradient><clipPath id="clip0_2148_17877"><rect width="46.073" height="48" fill="white"></rect></clipPath></defs></svg> 