<?xml version="1.0" encoding="UTF-8"?> <svg xmlns="http://www.w3.org/2000/svg" width="16" height="16" viewBox="0 0 16 16" fill="none"><path d="M9 13H1V1H13.6667V8.33333L9 13Z" fill="white"></path><path d="M2 15.6667L1 13H9L13.6667 8.33333L14.3333 12.6667L11.3333 15.6667H2Z" fill="#6AEAE9"></path><path fill-rule="evenodd" clip-rule="evenodd" d="M0.666672 1.00001C0.666672 0.81591 0.81591 0.666672 1.00001 0.666672H13.6667C13.8508 0.666672 14 0.81591 14 1.00001V8.33334C14 8.42174 13.9649 8.50653 13.9024 8.56904L9.23571 13.2357C9.17319 13.2982 9.08841 13.3333 9 13.3333H1.00001C0.81591 13.3333 0.666672 13.1841 0.666672 13V1.00001ZM1.33334 1.33334V12.6667H8.86193L13.3333 8.19527V1.33334H1.33334Z" fill="#562B7C"></path><path fill-rule="evenodd" clip-rule="evenodd" d="M8.66667 8.33333C8.66667 8.14924 8.81591 8 9.00001 8H13.6667C13.8508 8 14 8.14924 14 8.33333C14 8.51743 13.8508 8.66667 13.6667 8.66667H9.33334V13C9.33334 13.1841 9.1841 13.3333 9.00001 13.3333C8.81591 13.3333 8.66667 13.1841 8.66667 13V8.33333Z" fill="#562B7C"></path><path fill-rule="evenodd" clip-rule="evenodd" d="M14.2357 10.431C14.3659 10.5611 14.3659 10.7722 14.2357 10.9024L10.569 14.569C10.5065 14.6315 10.4217 14.6667 10.3333 14.6667H1.00001C0.81591 14.6667 0.666672 14.5174 0.666672 14.3333C0.666672 14.1492 0.81591 14 1.00001 14H10.1953L13.7643 10.431C13.8945 10.3008 14.1055 10.3008 14.2357 10.431Z" fill="#562B7C"></path><path fill-rule="evenodd" clip-rule="evenodd" d="M14.569 12.431C14.6992 12.5611 14.6992 12.7722 14.569 12.9024L11.569 15.9024C11.5065 15.9649 11.4217 16 11.3333 16H1.66666C1.48257 16 1.33333 15.8508 1.33333 15.6667C1.33333 15.4826 1.48257 15.3333 1.66666 15.3333H11.1953L14.0976 12.431C14.2278 12.3008 14.4389 12.3008 14.569 12.431Z" fill="#562B7C"></path></svg> 